<?xml version="1.0"?>
<svg xmlns="http://www.w3.org/2000/svg" xmlns:xlink="http://www.w3.org/1999/xlink" xmlns:svgjs="http://svgjs.com/svgjs" version="1.1" width="512" height="512" x="0" y="0" viewBox="0 0 512.947 512.947" style="enable-background:new 0 0 512 512" xml:space="preserve" class=""><g><path xmlns="http://www.w3.org/2000/svg" d="m481.675 420.352h-.266v-94.928c0-4.142-3.358-7.5-7.5-7.5s-7.5 3.358-7.5 7.5v12.942h-419.871v-62.176c5.314 2.858 9.653 6.88 14.448 11.325 9.935 9.211 21.195 19.652 43.175 19.652s33.241-10.441 43.176-19.652c9.058-8.398 16.881-15.652 32.978-15.652s23.919 7.253 32.977 15.652c9.935 9.211 21.195 19.652 43.175 19.652 21.981 0 33.242-10.441 43.177-19.652 9.059-8.398 16.881-15.652 32.978-15.652 16.098 0 23.921 7.253 32.98 15.652 9.936 9.212 21.197 19.652 43.179 19.652 21.981 0 33.242-10.44 43.178-19.652 4.796-4.446 9.136-8.469 14.451-11.327v16.596c0 4.142 3.358 7.5 7.5 7.5s7.5-3.358 7.5-7.5v-22.955c6.742-4.536 11.029-12.28 11.029-20.828 0-16.881-13.734-30.616-30.616-30.616h-11.476v-105.504c.173-.037.347-.074.523-.109 26.467-5.259 15.905-49.697-16.325-49.697h-41.799c-1.206-17.33-15.69-31.062-33.321-31.062-17.632 0-32.116 13.732-33.322 31.062h-37.198c.643-2.607.973-5.3.973-8.031 0-16.104-11.455-29.583-26.645-32.716.166-5.056 2.143-7.328 8.771-7.328 4.142 0 7.5-3.358 7.5-7.5s-3.358-7.5-7.5-7.5c-10.755 0-16.447 4.505-19.328 8.285-3.488 4.575-4.432 9.975-4.46 14.39-14.437 3.686-25.144 16.801-25.144 32.37 0 2.719.332 5.416.978 8.031h-37.757c-1.206-17.33-15.69-31.062-33.322-31.062-17.631 0-32.116 13.732-33.321 31.062h-41.248c-17.277 0-31.333 14.056-31.333 31.333 0 8.913 6.312 16.636 15.008 18.364.176.035.35.072.523.109v105.505h-11.476c-16.882 0-30.616 13.734-30.616 30.616 0 8.548 4.288 16.292 11.03 20.829v150.521h-.266c-16.981 0-30.797 13.815-30.797 30.796s13.815 30.797 30.797 30.797h3.161l13.427 26.855c1.27 2.541 3.867 4.146 6.708 4.146h403.81c2.841 0 5.438-1.605 6.708-4.146l13.427-26.855h3.161c16.981 0 30.797-13.815 30.797-30.797s-13.815-30.797-30.796-30.797zm-15.266-66.986v16.062h-419.871v-16.062zm-106.985-306.353c9.354 0 17.101 7.016 18.255 16.062h-36.511c1.154-9.046 8.901-16.062 18.256-16.062zm-121.354 8.031c0-9.985 7.994-18.139 17.919-18.397.165.011.331.017.498.017.164 0 .328-.005.492-.016 9.914.269 17.897 8.418 17.897 18.396 0 2.81-.631 5.544-1.839 8.031h-33.128c-1.206-2.487-1.839-5.237-1.839-8.031zm-85.101-8.031c9.355 0 17.102 7.016 18.256 16.062h-36.511c1.154-9.046 8.901-16.062 18.255-16.062zm-74.567 31.062h356.143c14.77 0 20.406 18.593 13.402 19.984-13.229 2.628-21.246 10.062-28.32 16.62-8.195 7.599-14.669 13.6-28.553 13.6s-20.357-6.001-28.553-13.6c-8.898-8.25-18.983-17.6-38.751-17.6s-29.853 9.351-38.75 17.601c-8.195 7.598-14.668 13.6-28.551 13.6s-20.356-6.001-28.551-13.6c-8.897-8.25-18.982-17.6-38.749-17.6-8.856 0-16.585 1.904-23.626 5.821-6.047 3.365-10.661 7.643-15.123 11.779-8.195 7.599-14.668 13.6-28.551 13.6s-20.356-6.001-28.551-13.6c-7.073-6.559-15.09-13.992-28.318-16.62-7.006-1.394-1.366-19.985 13.402-19.985zm43.466 65.204c19.767 0 29.852-9.351 38.75-17.601 3.985-3.695 7.75-7.185 12.217-9.67 4.819-2.681 10.009-3.929 16.334-3.929 13.883 0 20.355 6.001 28.55 13.6 8.898 8.25 18.982 17.601 38.75 17.601s29.852-9.351 38.75-17.6c8.195-7.599 14.668-13.6 28.552-13.6s20.358 6.001 28.553 13.6c8.898 8.25 18.983 17.6 38.751 17.6 23.617 0 33.105-13.202 44.273-22.554v35.537h-232.249c-4.142 0-7.5 3.358-7.5 7.5s3.358 7.5 7.5 7.5h232.248v16.062h-357.747v-16.062h92.813c4.142 0 7.5-3.358 7.5-7.5s-3.358-7.5-7.5-7.5h-92.813v-35.535c10.818 9.06 20.445 22.551 44.268 22.551zm-44.268 59.045h357.747v16.063h-357.747zm-26.476 31.063h410.698c8.611 0 15.616 7.005 15.616 15.616 0 4.567-2.989 8.549-7.268 9.682-12.847 3.402-21.115 11.068-28.411 17.832-9.059 8.398-16.882 15.652-32.979 15.652-16.098 0-23.921-7.253-32.98-15.652-9.936-9.212-21.197-19.652-43.178-19.652-21.98 0-33.241 10.44-43.176 19.652-9.059 8.398-16.881 15.652-32.979 15.652-16.096 0-23.919-7.253-32.977-15.652-9.935-9.211-21.196-19.652-43.176-19.652s-33.241 10.44-43.176 19.652c-9.059 8.398-16.881 15.652-32.978 15.652-16.096 0-23.919-7.253-32.977-15.652-7.294-6.763-15.563-14.429-28.408-17.832-4.279-1.133-7.268-5.115-7.268-9.682.001-8.611 7.006-15.616 15.617-15.616zm402.619 264.56h-394.539l-8-16.001h410.54zm27.932-31.002c-291.531-.121-376.051-.036-450.402 0-8.71 0-15.797-7.086-15.797-15.797 0-8.71 7.086-15.796 15.797-15.796h224.387c4.142 0 7.5-3.358 7.5-7.5s-3.358-7.5-7.5-7.5h-209.122v-35.924h419.871v35.924h-178.873c-4.142 0-7.5 3.358-7.5 7.5s3.358 7.5 7.5 7.5h194.139c8.71 0 15.797 7.086 15.797 15.796-.001 8.711-7.087 15.797-15.797 15.797z" fill="#161c2d" data-original="#000000" style=""/></g></svg>
