<?xml version="1.0"?>
<svg xmlns="http://www.w3.org/2000/svg" xmlns:xlink="http://www.w3.org/1999/xlink" xmlns:svgjs="http://svgjs.com/svgjs" version="1.1" width="512" height="512" x="0" y="0" viewBox="0 0 512 512" style="enable-background:new 0 0 512 512" xml:space="preserve" class=""><g><path xmlns="http://www.w3.org/2000/svg" d="m422.813 195.807a8 8 0 0 0 -6.813-3.807h-96v-18.868a31.86 31.86 0 0 0 8-21.132v-72a8 8 0 0 0 -8-8h-288a8 8 0 0 0 -8 8v320a8 8 0 0 0 8 8h56.679a47.991 47.991 0 0 0 94.641 0h177.359a47.99 47.99 0 0 0 94.641 0h24.68a8 8 0 0 0 8-8v-96a8 8 0 0 0 -1.187-4.193zm-118.813 108.193h-24v-96a8 8 0 0 0 -8-8h-208a8 8 0 0 0 -8 8v96h-16v-124.3a31.916 31.916 0 0 0 40-6.563 31.934 31.934 0 0 0 48 0 31.934 31.934 0 0 0 48 0 31.934 31.934 0 0 0 48 0 31.934 31.934 0 0 0 48 0 31.973 31.973 0 0 0 32 9.855zm-232-40h120v40h-120zm128-16h-128v-32h192v88h-56v-48a8 8 0 0 0 -8-8zm96-80a16 16 0 0 1 -13.835-8h27.67a16 16 0 0 1 -13.835 8zm-64-24v-56h32v56zm29.835 16a15.963 15.963 0 0 1 -27.67 0zm-45.835-16h-32v-56h32zm-2.165 16a15.963 15.963 0 0 1 -27.67 0zm-45.835-16h-32v-56h32zm-2.165 16a15.963 15.963 0 0 1 -27.67 0zm-45.835-16h-32v-56h32zm-2.165 16a15.963 15.963 0 0 1 -27.67 0zm-75.67 0h27.67a15.963 15.963 0 0 1 -27.67 0zm269.835-16h-32v-56h32zm-272-56h32v56h-32zm96 344a32 32 0 1 1 32-32 32.036 32.036 0 0 1 -32 32zm0-80a48.069 48.069 0 0 0 -47.321 40h-48.679v-72h264v72h-120.679a48.069 48.069 0 0 0 -47.321-40zm272 80a32 32 0 1 1 32-32 32.036 32.036 0 0 1 -32 32zm64-40h-16.679a47.99 47.99 0 0 0 -94.641 0h-40.68v-184h91.53l60.47 98.264z" fill="#000000" data-original="#000000" style=""/><path xmlns="http://www.w3.org/2000/svg" d="m400 216h-64a8 8 0 0 0 -8 8v48a8 8 0 0 0 8 8h88a8 8 0 0 0 7.155-11.578l-24-48a8 8 0 0 0 -7.155-4.422zm-56 48v-32h51.056l16 32z" fill="#000000" data-original="#000000" style=""/><path xmlns="http://www.w3.org/2000/svg" d="m224 336h24v16h-24z" fill="#000000" data-original="#000000" style=""/><path xmlns="http://www.w3.org/2000/svg" d="m264 336h24v16h-24z" fill="#000000" data-original="#000000" style=""/><path xmlns="http://www.w3.org/2000/svg" d="m128 392h16v16h-16z" fill="#000000" data-original="#000000" style=""/><path xmlns="http://www.w3.org/2000/svg" d="m400 392h16v16h-16z" fill="#000000" data-original="#000000" style=""/></g></svg>
