<?xml version="1.0"?>
<svg xmlns="http://www.w3.org/2000/svg" xmlns:xlink="http://www.w3.org/1999/xlink" xmlns:svgjs="http://svgjs.com/svgjs" version="1.1" width="512" height="512" x="0" y="0" viewBox="0 0 64 64" style="enable-background:new 0 0 512 512" xml:space="preserve" class=""><g><g xmlns="http://www.w3.org/2000/svg"><path d="m27 27.101v-2.101h-2v2h-4v5c0 2.757 2.243 5 5 5 1.654 0 3 1.346 3 3v3h-3c-1.654 0-3-1.346-3-3v-3h-2v3c0 2.414 1.721 4.434 4 4.899v2.101h2v-2h4v-5c0-2.757-2.243-5-5-5-1.654 0-3-1.346-3-3v-3h3c1.654 0 3 1.346 3 3v3h2v-3c0-2.414-1.721-4.434-4-4.899z" fill="#473bf0" data-original="#000000" style="" class=""/><path d="m63.744 55-12.744-8.921v4.921h-7.586c3.477-4.031 5.586-9.272 5.586-15 0-1.122-.085-2.224-.241-3.303l3.798-3.798-1.122-1.119c-.794-.794-1.025-1.981-.57-3.074.429-1.037 1.43-1.706 2.551-1.706h1.584v-8h-1.584c-1.121 0-2.122-.669-2.57-1.753-.436-1.044-.204-2.232.589-3.025l1.123-1.12-5.658-5.658-1.12 1.12c-.793.793-1.98 1.027-3.074.57-1.037-.428-1.706-1.428-1.706-2.55v-1.584h-8v1.584c0 1.121-.669 2.122-1.753 2.57-1.045.435-2.231.204-3.026-.59l-1.12-1.12-5.658 5.658 1.122 1.119c.767.767 1.003 1.901.609 2.959-11.354 1.398-20.174 11.095-20.174 22.82 0 5.51 2.007 10.85 5.571 15h-7.571v8h50v4.921zm-39.484-45.887 2.854-2.854c1.358 1.141 3.242 1.434 4.945.723 1.657-.684 2.771-2.22 2.923-3.982h4.035c.152 1.763 1.27 3.299 2.966 4 1.666.694 3.546.4 4.903-.741l2.854 2.854c-1.14 1.357-1.434 3.241-.723 4.947.686 1.657 2.221 2.77 3.982 2.922v4.036c-1.762.152-3.298 1.269-4 2.966-.695 1.666-.4 3.546.74 4.903l-1.448 1.448c-.574-2.258-1.483-4.383-2.671-6.321.889-1.522 1.38-3.234 1.38-5.014 0-5.514-4.486-10-10-10-3.257 0-6.234 1.562-8.113 4.188-.947-.12-1.909-.188-2.887-.188-.24 0-.477.011-.716.018.252-1.384-.107-2.813-1.024-3.905zm11.543 6.086c.385-.121.785-.199 1.197-.199 2.051 0 3.726 1.556 3.954 3.547-1.552-1.333-3.282-2.463-5.151-3.348zm1.197-2.199c-1.314 0-2.56.447-3.596 1.23-.742-.253-1.5-.469-2.273-.646 1.5-1.631 3.598-2.584 5.869-2.584 4.411 0 8 3.589 8 8 0 1.094-.236 2.154-.659 3.141-.473-.625-.979-1.223-1.512-1.796.101-.441.171-.888.171-1.345 0-3.309-2.691-6-6-6zm-34 44v-4h23c9.374 0 17-7.626 17-17s-7.626-17-17-17-17 7.626-17 17c0 6.485 3.65 12.135 9.005 15h-6.692c-4.015-3.936-6.313-9.37-6.313-15 0-11.58 9.421-21 21-21s21 9.42 21 21c0 11.579-9.421 21-21 21zm8-21c0-8.271 6.729-15 15-15s15 6.729 15 15-6.729 15-15 15-15-6.729-15-15zm24.363 21c2.25-1.007 4.313-2.36 6.112-4h11.525v-3.079l7.256 5.079-7.256 5.079v-3.079z" fill="#473bf0" data-original="#000000" style="" class=""/><path d="m53 33h10v2h-10z" fill="#473bf0" data-original="#000000" style="" class=""/><path d="m53 37h10v2h-10z" fill="#473bf0" data-original="#000000" style="" class=""/><path d="m53 41h2v2h-2z" fill="#473bf0" data-original="#000000" style="" class=""/><path d="m57 41h2v2h-2z" fill="#473bf0" data-original="#000000" style="" class=""/><path d="m61 41h2v2h-2z" fill="#473bf0" data-original="#000000" style="" class=""/><path d="m1 5h10v2h-10z" fill="#473bf0" data-original="#000000" style="" class=""/><path d="m1 9h10v2h-10z" fill="#473bf0" data-original="#000000" style="" class=""/><path d="m1 13h2v2h-2z" fill="#473bf0" data-original="#000000" style="" class=""/><path d="m5 13h2v2h-2z" fill="#473bf0" data-original="#000000" style="" class=""/><path d="m9 13h2v2h-2z" fill="#473bf0" data-original="#000000" style="" class=""/></g></g></svg>
